<svg version="1.1" viewBox="0.0 0.0 723.4776902887139 1340.1364829396325" fill="none" stroke="none" stroke-linecap="square" stroke-miterlimit="10" xmlns:xlink="http://www.w3.org/1999/xlink" xmlns="http://www.w3.org/2000/svg"><clipPath id="p.0"><path d="m0 0l723.47766 0l0 1340.1365l-723.47766 0l0 -1340.1365z" clip-rule="nonzero"/></clipPath><g clip-path="url(#p.0)"><path fill="#000000" fill-opacity="0.0" d="m0 0l723.47766 0l0 1340.1365l-723.47766 0z" fill-rule="evenodd"/><path fill="#fcfcfc" d="m74.338585 462.52493l13.923882 -205.76114l534.0761 -240.71393l16.199524 192.2126z" fill-rule="evenodd"/><path fill="#fcfcfc" d="m15.837271 1326.4619l13.926508 -205.87402l660.3989 -297.55115l16.16272 192.23883z" fill-rule="evenodd"/><path fill="#fcfcfc" d="m45.349083 890.7874l13.929131 -205.979l596.7349 -268.69556l16.112854 192.11285z" fill-rule="evenodd"/><path fill="#ffffff" d="m-2893.9712 -449.39108l1895.5591 0l0 1940.4725l-1895.5591 0z" fill-rule="evenodd"/><path fill="#000000" d="m-2377.5144 252.63203l737.59216 -332.43213l59.111816 172.91557l-737.59216 332.43213z" fill-rule="evenodd"/><path fill="#000000" d="m-2375.917 667.09827l737.59216 -332.43213l59.111816 172.91556l-737.59216 332.43216z" fill-rule="evenodd"/><path fill="#000000" d="m-2393.2097 1097.2567l792.6068 -357.22705l59.111694 172.91553l-792.6067 357.22717z" fill-rule="evenodd"/><path fill="#ffffff" d="m-1707.0927 -116.59054l288.40942 -31.937004l95.49609 1135.685l-288.40942 31.937012z" fill-rule="evenodd"/><path fill="#ffffff" d="m-2515.8567 33.39048l288.91333 25.795273l-86.740234 1281.0708l-288.91333 -25.795288z" fill-rule="evenodd"/><path fill="#cfe2f3" d="m-2249.6614 394.52493l13.923828 -205.76115l534.0762 -240.71391l16.199463 192.2126z" fill-rule="evenodd"/><path stroke="#000000" stroke-width="1.0" stroke-linejoin="round" stroke-linecap="butt" d="m-2249.6614 394.52493l13.923828 -205.76115l534.0762 -240.71391l16.199463 192.2126z" fill-rule="evenodd"/><path fill="#cfe2f3" d="m-2308.1628 1258.4619l13.926514 -205.87402l660.39905 -297.55115l16.16272 192.23883z" fill-rule="evenodd"/><path stroke="#000000" stroke-width="1.0" stroke-linejoin="round" stroke-linecap="butt" d="m-2308.1628 1258.4619l13.926514 -205.87402l660.39905 -297.55115l16.16272 192.23883z" fill-rule="evenodd"/><path fill="#cfe2f3" d="m-2278.651 822.7874l13.929199 -205.979l596.73486 -268.69556l16.112793 192.11285z" fill-rule="evenodd"/><path stroke="#000000" stroke-width="1.0" stroke-linejoin="round" stroke-linecap="butt" d="m-2278.651 822.7874l13.929199 -205.979l596.73486 -268.69556l16.112793 192.11285z" fill-rule="evenodd"/></g></svg>